<svg width="276" height="95" viewBox="0 0 276 95" fill="none" xmlns="http://www.w3.org/2000/svg">
<path d="M51.042 74.2499V73.2088H59.5111V74.2499H55.8272V87.2239H54.726V74.2499H51.042ZM74.1181 87.2239L72.176 82.5188H66.1495L64.2274 87.2239H62.9861L69.1727 72.6682L75.3594 87.2239H74.1181ZM69.1727 75.211L66.59 81.4777H71.7555L69.1727 75.211ZM79.4123 74.2499V73.2088H87.8814V74.2499H84.1975V87.2239H83.0963V74.2499H79.4123ZM94.057 74.2499V73.2088H102.526V74.2499H98.8421V87.2239H97.7409V74.2499H94.057ZM107.699 80.2163C107.699 79.1886 107.872 78.2409 108.22 77.3733C108.567 76.4923 109.054 75.7315 109.681 75.0908C110.308 74.4368 111.043 73.9296 111.883 73.5692C112.738 73.2088 113.665 73.0286 114.666 73.0286C115.668 73.0286 116.589 73.2088 117.429 73.5692C118.284 73.9296 119.024 74.4368 119.652 75.0908C120.279 75.7315 120.766 76.4923 121.113 77.3733C121.46 78.2409 121.634 79.1886 121.634 80.2163C121.634 81.2441 121.46 82.1985 121.113 83.0794C120.766 83.947 120.279 84.7078 119.652 85.3619C119.024 86.0026 118.284 86.5031 117.429 86.8635C116.589 87.2239 115.668 87.4041 114.666 87.4041C113.665 87.4041 112.738 87.2239 111.883 86.8635C111.043 86.5031 110.308 86.0026 109.681 85.3619C109.054 84.7078 108.567 83.947 108.22 83.0794C107.872 82.1985 107.699 81.2441 107.699 80.2163ZM108.86 80.2163C108.86 81.3776 109.107 82.4187 109.601 83.3397C110.108 84.2607 110.796 84.9881 111.663 85.522C112.544 86.0426 113.545 86.3029 114.666 86.3029C115.788 86.3029 116.782 86.0426 117.65 85.522C118.531 84.9881 119.218 84.2607 119.712 83.3397C120.206 82.4187 120.453 81.3776 120.453 80.2163C120.453 79.0418 120.206 78.0006 119.712 77.093C119.218 76.172 118.531 75.4512 117.65 74.9307C116.782 74.3968 115.788 74.1298 114.666 74.1298C113.545 74.1298 112.544 74.3968 111.663 74.9307C110.796 75.4512 110.108 76.172 109.601 77.093C109.107 78.0006 108.86 79.0418 108.86 80.2163ZM128.385 80.2163C128.385 79.1886 128.559 78.2409 128.906 77.3733C129.253 76.4923 129.74 75.7315 130.367 75.0908C130.995 74.4368 131.729 73.9296 132.57 73.5692C133.424 73.2088 134.352 73.0286 135.353 73.0286C136.354 73.0286 137.275 73.2088 138.116 73.5692C138.97 73.9296 139.711 74.4368 140.338 75.0908C140.965 75.7315 141.453 76.4923 141.8 77.3733C142.147 78.2409 142.32 79.1886 142.32 80.2163C142.32 81.2441 142.147 82.1985 141.8 83.0794C141.453 83.947 140.965 84.7078 140.338 85.3619C139.711 86.0026 138.97 86.5031 138.116 86.8635C137.275 87.2239 136.354 87.4041 135.353 87.4041C134.352 87.4041 133.424 87.2239 132.57 86.8635C131.729 86.5031 130.995 86.0026 130.367 85.3619C129.74 84.7078 129.253 83.947 128.906 83.0794C128.559 82.1985 128.385 81.2441 128.385 80.2163ZM129.546 80.2163C129.546 81.3776 129.793 82.4187 130.287 83.3397C130.795 84.2607 131.482 84.9881 132.35 85.522C133.23 86.0426 134.232 86.3029 135.353 86.3029C136.474 86.3029 137.468 86.0426 138.336 85.522C139.217 84.9881 139.904 84.2607 140.398 83.3397C140.892 82.4187 141.139 81.3776 141.139 80.2163C141.139 79.0418 140.892 78.0006 140.398 77.093C139.904 76.172 139.217 75.4512 138.336 74.9307C137.468 74.3968 136.474 74.1298 135.353 74.1298C134.232 74.1298 133.23 74.3968 132.35 74.9307C131.482 75.4512 130.795 76.172 130.287 77.093C129.793 78.0006 129.546 79.0418 129.546 80.2163ZM160.98 83.1795C161.207 83.7668 161.481 84.3074 161.801 84.8013C162.122 85.2818 162.522 85.6622 163.003 85.9425C163.483 86.2228 164.064 86.363 164.744 86.363C165.652 86.363 166.36 86.116 166.867 85.6222C167.387 85.1149 167.648 84.4743 167.648 83.7001C167.648 83.0194 167.494 82.4721 167.187 82.0583C166.88 81.6446 166.48 81.3109 165.986 81.0573C165.505 80.7903 164.998 80.5567 164.464 80.3565C164.064 80.2097 163.643 80.0362 163.203 79.8359C162.776 79.6224 162.375 79.3688 162.002 79.0751C161.628 78.7681 161.321 78.4011 161.081 77.9739C160.854 77.5468 160.74 77.0329 160.74 76.4323C160.74 75.7516 160.9 75.1576 161.221 74.6504C161.541 74.1432 161.981 73.7494 162.542 73.4691C163.116 73.1755 163.77 73.0286 164.504 73.0286C165.252 73.0286 165.892 73.1688 166.426 73.4491C166.974 73.7294 167.427 74.0831 167.788 74.5102C168.148 74.9373 168.422 75.3778 168.609 75.8316L167.648 76.3722C167.487 76.0118 167.274 75.6581 167.007 75.3111C166.74 74.964 166.4 74.6771 165.986 74.4502C165.572 74.2099 165.058 74.0898 164.444 74.0898C163.63 74.0898 163.003 74.3033 162.562 74.7305C162.122 75.1442 161.901 75.6648 161.901 76.2921C161.901 77.0663 162.182 77.6936 162.742 78.1742C163.316 78.6547 164.171 79.0951 165.305 79.4956C165.826 79.6824 166.353 79.936 166.887 80.2564C167.434 80.5767 167.888 81.0039 168.248 81.5378C168.609 82.0717 168.789 82.7524 168.789 83.58C168.789 84.3408 168.609 85.0082 168.248 85.5821C167.888 86.1561 167.401 86.6032 166.787 86.9236C166.173 87.2439 165.485 87.4041 164.724 87.4041C163.924 87.4041 163.209 87.2372 162.582 86.9035C161.968 86.5565 161.454 86.1093 161.04 85.5621C160.627 85.0015 160.306 84.3942 160.079 83.7401L160.98 83.1795ZM176.385 73.2088H177.486V79.0751H185.675V73.2088H186.796V87.2239H185.675V80.1162H177.486V87.2239H176.385V73.2088ZM194.335 80.2163C194.335 79.1886 194.509 78.2409 194.856 77.3733C195.203 76.4923 195.69 75.7315 196.317 75.0908C196.944 74.4368 197.679 73.9296 198.519 73.5692C199.374 73.2088 200.301 73.0286 201.302 73.0286C202.304 73.0286 203.225 73.2088 204.065 73.5692C204.92 73.9296 205.661 74.4368 206.288 75.0908C206.915 75.7315 207.402 76.4923 207.749 77.3733C208.096 78.2409 208.27 79.1886 208.27 80.2163C208.27 81.2441 208.096 82.1985 207.749 83.0794C207.402 83.947 206.915 84.7078 206.288 85.3619C205.661 86.0026 204.92 86.5031 204.065 86.8635C203.225 87.2239 202.304 87.4041 201.302 87.4041C200.301 87.4041 199.374 87.2239 198.519 86.8635C197.679 86.5031 196.944 86.0026 196.317 85.3619C195.69 84.7078 195.203 83.947 194.856 83.0794C194.509 82.1985 194.335 81.2441 194.335 80.2163ZM195.496 80.2163C195.496 81.3776 195.743 82.4187 196.237 83.3397C196.744 84.2607 197.432 84.9881 198.299 85.522C199.18 86.0426 200.181 86.3029 201.302 86.3029C202.424 86.3029 203.418 86.0426 204.286 85.522C205.167 84.9881 205.854 84.2607 206.348 83.3397C206.842 82.4187 207.089 81.3776 207.089 80.2163C207.089 79.0418 206.842 78.0006 206.348 77.093C205.854 76.172 205.167 75.4512 204.286 74.9307C203.418 74.3968 202.424 74.1298 201.302 74.1298C200.181 74.1298 199.18 74.3968 198.299 74.9307C197.432 75.4512 196.744 76.172 196.237 77.093C195.743 78.0006 195.496 79.0418 195.496 80.2163ZM215.822 73.2088H219.106C219.987 73.2088 220.767 73.3757 221.448 73.7094C222.142 74.0431 222.69 74.5169 223.09 75.1309C223.49 75.7449 223.691 76.4857 223.691 77.3533C223.691 78.2075 223.49 78.9483 223.09 79.5757C222.69 80.1897 222.142 80.6635 221.448 80.9972C220.767 81.3309 219.987 81.4977 219.106 81.4977H216.923V87.2239H215.822V73.2088ZM219.106 74.2499H216.923V80.4566H219.106C220.133 80.4566 220.968 80.1963 221.608 79.6758C222.249 79.1419 222.569 78.3677 222.569 77.3533C222.569 76.3389 222.249 75.5714 221.608 75.0508C220.968 74.5169 220.133 74.2499 219.106 74.2499Z" fill="#BB8C5F"/>
<path d="M0.871635 55.2986L5 59.4269L9.12836 55.2986L5 51.1702L0.871635 55.2986ZM275.128 55.2986L271 51.1702L266.872 55.2986L271 59.4269L275.128 55.2986ZM5 56.0136L271 56.0136L271 54.5835L5 54.5835L5 56.0136Z" fill="#BB8C5F"/>
<path d="M41.454 40.571H41.6685C41.8687 40.571 42.0546 40.4852 42.2262 40.3135C42.3979 40.1419 42.5409 39.9417 42.6553 39.7129C42.7983 39.4841 42.8984 39.241 42.9556 38.9835C43.0128 38.6975 43.0414 38.4401 43.0414 38.2113V15.6442L31.9724 41.4719L21.4611 16.9742V38.2113C21.4611 38.4401 21.4897 38.6975 21.5469 38.9835C21.6041 39.241 21.6899 39.4841 21.8043 39.7129C21.9473 39.9417 22.1046 40.1419 22.2762 40.3135C22.4479 40.4852 22.6481 40.571 22.8769 40.571H23.0914V41H18.415V40.571H18.6295C18.8297 40.571 19.0156 40.4852 19.1872 40.3135C19.3588 40.1419 19.5018 39.9417 19.6162 39.7129C19.7307 39.4841 19.8165 39.241 19.8737 38.9835C19.9309 38.6975 19.9595 38.4401 19.9595 38.2113V15.3439C19.9595 15.1437 19.9309 14.9148 19.8737 14.6574C19.8165 14.4 19.7307 14.1569 19.6162 13.9281C19.5018 13.6992 19.3588 13.5133 19.1872 13.3703C19.0156 13.1987 18.8297 13.1129 18.6295 13.1129H18.415V12.6839H22.7911L32.7446 36.1519L42.6982 12.6839H47.5462V13.1129H47.3317C47.1029 13.1129 46.9027 13.1987 46.7311 13.3703C46.5595 13.5133 46.4022 13.6992 46.2591 13.9281C46.1447 14.1569 46.0589 14.4 46.0017 14.6574C45.9445 14.9148 45.9159 15.1437 45.9159 15.3439V38.2113C45.9159 38.4401 45.9445 38.6975 46.0017 38.9835C46.0589 39.241 46.1447 39.4841 46.2591 39.7129C46.4022 39.9417 46.5595 40.1419 46.7311 40.3135C46.9027 40.4852 47.1029 40.571 47.3317 40.571H47.5462V41H41.454V40.571ZM57.5574 40.571H57.772V41H51.7226V40.571H51.9371C52.1373 40.571 52.3233 40.4852 52.4949 40.3135C52.6665 40.1419 52.8095 39.9417 52.9239 39.7129C53.0669 39.4841 53.167 39.241 53.2242 38.9835C53.2814 38.6975 53.31 38.4401 53.31 38.2113V15.3439C53.31 15.1437 53.2814 14.9148 53.2242 14.6574C53.167 14.4 53.0669 14.1569 52.9239 13.9281C52.8095 13.6992 52.6665 13.5133 52.4949 13.3703C52.3233 13.1987 52.1373 13.1129 51.9371 13.1129H51.7226V12.6839H59.1878C62.048 12.6839 64.2503 13.2416 65.7949 14.3571C67.368 15.4726 68.1545 17.1172 68.1545 19.291C68.1545 20.3778 67.9686 21.336 67.5968 22.1655C67.2536 22.9663 66.7816 23.6671 66.181 24.2677C65.5803 24.8398 64.8653 25.3117 64.0358 25.6835C63.235 26.0268 62.3769 26.2842 61.4616 26.4558L64.5507 31.1752C65.2943 32.3192 66.0523 33.449 66.8245 34.5645C67.5968 35.6514 68.3548 36.7812 69.0984 37.9539C69.2986 38.2399 69.5131 38.5402 69.742 38.8548C69.9994 39.1695 70.2568 39.4555 70.5142 39.7129C70.8002 39.9703 71.0863 40.1848 71.3723 40.3565C71.6869 40.4995 72.0015 40.571 72.3162 40.571V41H70.4713C69.3272 41 68.3834 40.7283 67.6397 40.1848C66.9247 39.6128 66.324 38.9549 65.8378 38.2113C64.5507 36.3235 63.2636 34.4072 61.9765 32.4623C60.718 30.5173 59.4595 28.601 58.201 26.7132C57.8864 26.6846 57.5431 26.656 57.1713 26.6274C56.8281 26.5702 56.4992 26.513 56.1845 26.4558V38.2113C56.1845 38.4401 56.2131 38.6975 56.2703 38.9835C56.3276 39.241 56.4134 39.4841 56.5278 39.7129C56.6708 39.9417 56.8138 40.1419 56.9568 40.3135C57.1284 40.4852 57.3286 40.571 57.5574 40.571ZM56.1845 14.1426V25.04H56.3991C56.6279 25.0686 56.9854 25.0972 57.4716 25.1258C57.9865 25.1258 58.6157 25.1258 59.3594 25.1258C59.96 25.1258 60.5893 25.04 61.2471 24.8684C61.9336 24.6682 62.5628 24.3535 63.1349 23.9245C63.7355 23.4669 64.2217 22.8805 64.5936 22.1655C64.994 21.4504 65.1942 20.5495 65.1942 19.4626C65.1942 18.3757 64.9797 17.489 64.5507 16.8026C64.1502 16.1161 63.5782 15.5727 62.8345 15.1723C62.1195 14.7718 61.2471 14.5001 60.2174 14.3571C59.1878 14.2141 58.058 14.1426 56.8281 14.1426H56.1845ZM75.1923 39.1552C75.1923 38.5831 75.3783 38.0969 75.7501 37.6965C76.1505 37.296 76.6368 37.0958 77.2088 37.0958C77.7808 37.0958 78.2671 37.296 78.6675 37.6965C79.0679 38.0969 79.2682 38.5831 79.2682 39.1552C79.2682 39.7272 79.0679 40.2134 78.6675 40.6139C78.2671 40.9857 77.7808 41.1716 77.2088 41.1716C76.6368 41.1716 76.1505 40.9857 75.7501 40.6139C75.3783 40.2134 75.1923 39.7272 75.1923 39.1552ZM94.6248 40.571H94.8393C95.0396 40.571 95.2255 40.4852 95.3971 40.3135C95.5687 40.1419 95.7117 39.9417 95.8261 39.7129C95.9691 39.4841 96.0692 39.241 96.1264 38.9835C96.1836 38.6975 96.2122 38.4401 96.2122 38.2113V15.3439C96.2122 15.1437 96.1836 14.9148 96.1264 14.6574C96.0692 14.4 95.9834 14.1569 95.869 13.9281C95.7546 13.6992 95.6116 13.5133 95.44 13.3703C95.2684 13.1987 95.0682 13.1129 94.8393 13.1129H94.6248V12.6839H102.905C105.165 12.6839 107.195 13.0843 108.997 13.8852C110.799 14.6574 112.315 15.7157 113.545 17.06C114.804 18.3757 115.762 19.8916 116.42 21.6077C117.078 23.3239 117.406 25.1115 117.406 26.9706C117.406 28.7154 117.092 30.4315 116.463 32.119C115.833 33.778 114.889 35.2653 113.631 36.581C112.372 37.8967 110.799 38.9692 108.912 39.7987C107.024 40.5996 104.836 41 102.347 41H94.6248V40.571ZM114.489 27.6142C114.489 25.7837 114.16 24.0532 113.502 22.4229C112.844 20.7926 111.915 19.3768 110.714 18.1755C109.541 16.9456 108.139 15.9731 106.509 15.2581C104.907 14.543 103.163 14.1855 101.275 14.1855H99.0868V39.4984H101.361C102.905 39.4984 104.45 39.2696 105.994 38.8119C107.567 38.3257 108.983 37.5963 110.242 36.6239C111.5 35.6228 112.515 34.3786 113.288 32.8913C114.089 31.404 114.489 29.6449 114.489 27.6142ZM126.94 40.571H127.155V41H121.105V40.571H121.32C121.52 40.571 121.706 40.4852 121.877 40.3135C122.049 40.1419 122.192 39.9417 122.306 39.7129C122.449 39.4841 122.55 39.241 122.607 38.9835C122.664 38.6975 122.693 38.4401 122.693 38.2113V15.3439C122.693 15.1437 122.664 14.9148 122.607 14.6574C122.55 14.4 122.449 14.1569 122.306 13.9281C122.192 13.6992 122.049 13.5133 121.877 13.3703C121.706 13.1987 121.52 13.1129 121.32 13.1129H121.105V12.6839H128.57C131.431 12.6839 133.633 13.2416 135.177 14.3571C136.751 15.4726 137.537 17.1172 137.537 19.291C137.537 20.3778 137.351 21.336 136.979 22.1655C136.636 22.9663 136.164 23.6671 135.564 24.2677C134.963 24.8398 134.248 25.3117 133.418 25.6835C132.618 26.0268 131.759 26.2842 130.844 26.4558L133.933 31.1752C134.677 32.3192 135.435 33.449 136.207 34.5645C136.979 35.6514 137.737 36.7812 138.481 37.9539C138.681 38.2399 138.896 38.5402 139.125 38.8548C139.382 39.1695 139.639 39.4555 139.897 39.7129C140.183 39.9703 140.469 40.1848 140.755 40.3565C141.069 40.4995 141.384 40.571 141.699 40.571V41H139.854C138.71 41 137.766 40.7283 137.022 40.1848C136.307 39.6128 135.707 38.9549 135.22 38.2113C133.933 36.3235 132.646 34.4072 131.359 32.4623C130.101 30.5173 128.842 28.601 127.584 26.7132C127.269 26.6846 126.926 26.656 126.554 26.6274C126.211 26.5702 125.882 26.513 125.567 26.4558V38.2113C125.567 38.4401 125.596 38.6975 125.653 38.9835C125.71 39.241 125.796 39.4841 125.91 39.7129C126.053 39.9417 126.196 40.1419 126.339 40.3135C126.511 40.4852 126.711 40.571 126.94 40.571ZM125.567 14.1426V25.04H125.782C126.01 25.0686 126.368 25.0972 126.854 25.1258C127.369 25.1258 127.998 25.1258 128.742 25.1258C129.343 25.1258 129.972 25.04 130.63 24.8684C131.316 24.6682 131.945 24.3535 132.517 23.9245C133.118 23.4669 133.604 22.8805 133.976 22.1655C134.377 21.4504 134.577 20.5495 134.577 19.4626C134.577 18.3757 134.362 17.489 133.933 16.8026C133.533 16.1161 132.961 15.5727 132.217 15.1723C131.502 14.7718 130.63 14.5001 129.6 14.3571C128.57 14.2141 127.441 14.1426 126.211 14.1426H125.567ZM144.446 12.6839H150.581V13.1129H150.367C150.167 13.1129 149.981 13.1987 149.809 13.3703C149.637 13.5133 149.494 13.6992 149.38 13.9281C149.266 14.1283 149.166 14.3714 149.08 14.6574C149.023 14.9148 148.994 15.1437 148.994 15.3439V38.2113C148.994 38.4401 149.023 38.6975 149.08 38.9835C149.137 39.241 149.223 39.4841 149.337 39.7129C149.48 39.9417 149.623 40.1419 149.766 40.3135C149.938 40.4852 150.138 40.571 150.367 40.571H150.581V41H144.446V40.571H144.661C144.89 40.571 145.09 40.4995 145.261 40.3565C145.433 40.1848 145.576 39.9846 145.69 39.7558C145.833 39.4984 145.934 39.241 145.991 38.9835C146.048 38.6975 146.077 38.4401 146.077 38.2113V15.3439C146.077 15.1437 146.048 14.9148 145.991 14.6574C145.934 14.4 145.833 14.1569 145.69 13.9281C145.576 13.6992 145.433 13.5133 145.261 13.3703C145.09 13.1987 144.89 13.1129 144.661 13.1129H144.446V12.6839ZM172.083 33.4061C172.083 34.8362 171.797 36.0661 171.225 37.0958C170.653 38.0969 169.909 38.912 168.994 39.5413C168.107 40.1705 167.092 40.6282 165.948 40.9142C164.832 41.2002 163.717 41.3432 162.601 41.3432C161.457 41.3432 160.47 41.2288 159.641 41C158.812 40.7712 158.054 40.5567 157.367 40.3565C156.909 40.2134 156.495 40.099 156.123 40.0132C155.751 39.8988 155.379 39.8416 155.007 39.8416V34.9506H155.436C155.436 36.0375 155.708 36.9099 156.252 37.5677C156.824 38.197 157.482 38.6832 158.225 39.0265C158.969 39.3697 159.712 39.5985 160.456 39.7129C161.2 39.7987 161.743 39.8416 162.086 39.8416C163.316 39.8416 164.375 39.67 165.261 39.3268C166.148 38.9549 166.877 38.483 167.449 37.911C168.021 37.3103 168.436 36.6525 168.694 35.9374C168.98 35.2224 169.123 34.493 169.123 33.7494C169.123 32.8055 168.922 32.0189 168.522 31.3897C168.122 30.7318 167.592 30.1598 166.935 29.6735C166.305 29.1873 165.576 28.7726 164.746 28.4294C163.917 28.0861 163.073 27.7429 162.215 27.3997C161.243 27.0278 160.285 26.6417 159.341 26.2413C158.397 25.8409 157.553 25.3546 156.809 24.7826C156.066 24.1819 155.465 23.4812 155.007 22.6803C154.55 21.8509 154.321 20.8355 154.321 19.6342C154.321 18.3757 154.564 17.2888 155.05 16.3735C155.537 15.4297 156.18 14.6574 156.981 14.0568C157.81 13.4561 158.74 13.0128 159.77 12.7268C160.828 12.4122 161.901 12.2548 162.987 12.2548C163.731 12.2548 164.432 12.312 165.09 12.4265C165.748 12.5123 166.377 12.6267 166.977 12.7697C167.464 12.8841 167.936 12.9842 168.393 13.07C168.851 13.1272 169.294 13.1558 169.723 13.1558V17.5748H169.294C169.237 16.0875 168.651 15.0864 167.535 14.5716C166.42 14.0282 164.875 13.7565 162.902 13.7565C161.758 13.7565 160.814 13.9567 160.07 14.3571C159.355 14.7289 158.783 15.2009 158.354 15.7729C157.925 16.3163 157.625 16.917 157.453 17.5748C157.31 18.2041 157.238 18.7618 157.238 19.2481C157.238 20.0489 157.41 20.7354 157.753 21.3074C158.125 21.8795 158.611 22.38 159.212 22.809C159.813 23.2381 160.499 23.6242 161.271 23.9674C162.072 24.3106 162.902 24.6396 163.76 24.9542C164.732 25.326 165.719 25.7265 166.72 26.1555C167.721 26.5845 168.608 27.1137 169.38 27.7429C170.181 28.3722 170.824 29.1444 171.311 30.0597C171.825 30.9749 172.083 32.0904 172.083 33.4061ZM181.66 40.571H181.875V41H175.74V40.571H175.954C176.183 40.571 176.383 40.4852 176.555 40.3135C176.727 40.1419 176.87 39.9417 176.984 39.7129C177.127 39.4841 177.227 39.241 177.284 38.9835C177.341 38.6975 177.37 38.4401 177.37 38.2113V15.3439C177.37 15.1437 177.341 14.9148 177.284 14.6574C177.227 14.4 177.127 14.1569 176.984 13.9281C176.87 13.6992 176.727 13.5133 176.555 13.3703C176.383 13.1987 176.197 13.1129 175.997 13.1129H175.783V12.6839H181.918V13.1129H181.703C181.474 13.1129 181.274 13.1987 181.103 13.3703C180.931 13.5133 180.774 13.6992 180.631 13.9281C180.516 14.1569 180.416 14.4 180.33 14.6574C180.273 14.9148 180.245 15.1437 180.245 15.3439V25.2974L191.142 14.4858C191.314 14.2856 191.399 14.0568 191.399 13.7994C191.399 13.3417 191.228 13.1129 190.885 13.1129H190.67V12.6839H195.904V13.1129H195.69C195.289 13.1129 194.875 13.2559 194.446 13.5419C194.017 13.828 193.587 14.1855 193.158 14.6145L184.149 23.5813L193.63 37.9539C193.659 38.0111 193.788 38.1827 194.017 38.4687C194.245 38.7547 194.517 39.0551 194.832 39.3697C195.175 39.6843 195.547 39.9703 195.947 40.2277C196.376 40.4566 196.805 40.571 197.234 40.571V41H196.205C195.347 41 194.617 40.9571 194.017 40.8713C193.444 40.7569 192.944 40.5853 192.515 40.3565C192.086 40.1276 191.7 39.8416 191.357 39.4984C191.042 39.1552 190.713 38.7261 190.37 38.2113L182.047 25.6406L180.245 27.4855V38.2113C180.245 38.4401 180.273 38.6832 180.33 38.9406C180.416 39.1981 180.516 39.4555 180.631 39.7129C180.745 39.9417 180.888 40.1419 181.06 40.3135C181.231 40.4852 181.432 40.571 181.66 40.571ZM200.04 40.571H200.255C200.484 40.571 200.684 40.4995 200.856 40.3565C201.027 40.1848 201.17 39.9846 201.285 39.7558C201.428 39.527 201.528 39.2839 201.585 39.0265C201.671 38.769 201.714 38.5259 201.714 38.2971V15.3439C201.714 15.1437 201.671 14.9148 201.585 14.6574C201.528 14.4 201.428 14.1569 201.285 13.9281C201.17 13.6992 201.027 13.5133 200.856 13.3703C200.684 13.1987 200.484 13.1129 200.255 13.1129H200.04V12.6839H216.558V16.6739H216.129C216.072 16.016 215.814 15.444 215.357 14.9577C214.899 14.4429 214.184 14.1855 213.212 14.1855H204.588V25.04H211.71C212.368 25.04 212.911 24.8398 213.34 24.4394C213.798 24.0389 214.027 23.567 214.027 23.0235H214.456V28.3865H214.027C214.027 27.8716 213.812 27.4283 213.383 27.0565C212.954 26.6846 212.397 26.4987 211.71 26.4987H204.588V39.4984H213.984C214.527 39.4984 214.999 39.3697 215.4 39.1123C215.8 38.8548 216.129 38.5545 216.387 38.2113C216.673 37.8395 216.873 37.4533 216.987 37.0529C217.13 36.6239 217.202 36.2663 217.202 35.9803H217.631V41H200.04V40.571ZM220.864 40.571H221.078C221.307 40.571 221.507 40.4995 221.679 40.3565C221.85 40.1848 221.993 39.9846 222.108 39.7558C222.251 39.527 222.351 39.2839 222.408 39.0265C222.494 38.769 222.537 38.5259 222.537 38.2971V15.3439C222.537 15.1437 222.494 14.9148 222.408 14.6574C222.351 14.4 222.251 14.1569 222.108 13.9281C221.993 13.6992 221.85 13.5133 221.679 13.3703C221.507 13.1987 221.307 13.1129 221.078 13.1129H220.864V12.6839H227.042V13.1129H226.827C226.598 13.1129 226.398 13.1987 226.226 13.3703C226.055 13.5133 225.912 13.6992 225.797 13.9281C225.683 14.1569 225.583 14.4 225.497 14.6574C225.44 14.9148 225.411 15.1437 225.411 15.3439V39.4126H234.807C235.351 39.4126 235.822 39.2839 236.223 39.0265C236.623 38.769 236.952 38.4544 237.21 38.0826C237.496 37.6822 237.696 37.2674 237.81 36.8384C237.953 36.3808 238.025 35.966 238.025 35.5942H238.454V41H220.864V40.571ZM240.807 40.571H241.021C241.25 40.571 241.45 40.4995 241.622 40.3565C241.794 40.1848 241.937 39.9846 242.051 39.7558C242.194 39.527 242.294 39.2839 242.351 39.0265C242.437 38.769 242.48 38.5259 242.48 38.2971V15.3439C242.48 15.1437 242.437 14.9148 242.351 14.6574C242.294 14.4 242.194 14.1569 242.051 13.9281C241.937 13.6992 241.794 13.5133 241.622 13.3703C241.45 13.1987 241.25 13.1129 241.021 13.1129H240.807V12.6839H246.985V13.1129H246.77C246.542 13.1129 246.341 13.1987 246.17 13.3703C245.998 13.5133 245.855 13.6992 245.741 13.9281C245.626 14.1569 245.526 14.4 245.44 14.6574C245.383 14.9148 245.355 15.1437 245.355 15.3439V39.4126H254.75C255.294 39.4126 255.766 39.2839 256.166 39.0265C256.567 38.769 256.896 38.4544 257.153 38.0826C257.439 37.6822 257.639 37.2674 257.754 36.8384C257.897 36.3808 257.968 35.966 257.968 35.5942H258.397V41H240.807V40.571Z" fill="#BB8C5F"/>
</svg>
