<svg width="40" height="40" viewBox="0 0 40 40" fill="none" xmlns="http://www.w3.org/2000/svg">
<path d="M0 0H40V40H0V0Z" fill="#050402"/>
<path d="M16.6728 24.0688L16.3325 29.1669C16.8325 29.1669 17.0535 28.9382 17.3325 28.6669L19.7348 26.331L24.7325 30.0234C25.6523 30.5309 26.3161 30.2681 26.5452 29.1695L29.826 13.709C30.1619 12.3623 29.3127 11.7515 28.4328 12.1509L9.16782 19.5794C7.8528 20.1069 7.86047 20.8405 8.92812 21.1674L13.8719 22.7105L25.3174 15.4897C25.8578 15.162 26.3537 15.3382 25.9466 15.6994L16.6725 24.0686L16.6728 24.0688Z" fill="#BB8C5F"/>
<path d="M0 0V-1.42857H-1.42857V0H0ZM40 0H41.4286V-1.42857H40V0ZM40 40V41.4286H41.4286V40H40ZM0 40H-1.42857V41.4286H0V40ZM0 1.42857H40V-1.42857H0V1.42857ZM38.5714 0V40H41.4286V0H38.5714ZM40 38.5714H0V41.4286H40V38.5714ZM1.42857 40V0H-1.42857V40H1.42857Z" fill="#BB8C5F"/>
</svg>
