<svg width="40" height="40" viewBox="0 0 40 40" fill="none" xmlns="http://www.w3.org/2000/svg">
<path d="M0 0H40V40H0V0Z" fill="#050402"/>
<path d="M25.3196 16.9105C25.2294 16.1759 25.0041 15.599 24.6041 15.0881C24.0847 14.4302 23.421 14.0362 22.4383 13.8025C21.7979 13.6467 21.5391 13.6646 21.3075 13.8767C21.0917 14.0754 21.0496 14.4738 21.2145 14.7318C21.3304 14.919 21.4642 14.9861 21.8362 15.0593C22.3317 15.1507 22.674 15.2693 22.9855 15.4478C23.6465 15.8304 23.9543 16.4292 23.9873 17.3986C24.0027 17.8538 24.0419 17.9937 24.2005 18.1552C24.4944 18.4502 25.0175 18.3929 25.2394 18.0397C25.3208 17.9066 25.3332 17.8487 25.3418 17.5396C25.3475 17.3483 25.3393 17.0635 25.3196 16.9105Z" fill="#BB8C5F"/>
<path d="M27.9073 17.7388C27.7768 15.4881 26.8986 13.6773 25.327 12.4032C24.4415 11.6873 23.3712 11.195 22.1979 10.9556C21.7682 10.87 20.9769 10.8006 20.8411 10.8403C20.713 10.8771 20.5319 11.0161 20.4511 11.1419C20.3657 11.2782 20.3465 11.5827 20.4193 11.7588C20.5369 12.0532 20.7556 12.1572 21.3682 12.2109C22.3126 12.2937 23.2867 12.6264 24.0226 13.1188C24.8629 13.6795 25.5308 14.4463 25.9629 15.3474C26.3363 16.1217 26.5659 17.2375 26.5595 18.2367C26.5574 18.598 26.613 18.8021 26.758 18.9513C26.9768 19.1807 27.2958 19.2309 27.5773 19.0785C27.8893 18.9141 27.9622 18.6253 27.9073 17.7388Z" fill="#BB8C5F"/>
<path d="M30.7726 26.4066C30.7287 26.278 30.6262 26.0795 30.553 25.9656C30.0918 25.2674 27.6138 23.3233 26.3766 22.6875C25.6702 22.3237 25.1468 22.2025 24.7588 22.3163C24.3415 22.434 24.1219 22.6287 23.4228 23.4997C23.1409 23.8488 22.8518 24.1759 22.7749 24.2273C22.5846 24.3596 22.2112 24.4663 21.9477 24.4663C21.3364 24.4625 20.2273 24.0656 19.3745 23.5438C18.712 23.1396 17.8628 22.4156 17.2113 21.699C16.4426 20.8574 15.9192 20.115 15.5055 19.2771C14.9712 18.2004 14.8357 17.5425 15.059 17.0611C15.1139 16.9398 15.1871 16.8112 15.22 16.7707C15.253 16.7341 15.5971 16.451 15.9777 16.1423C16.7244 15.547 16.8452 15.411 16.9843 15.0031C17.16 14.4849 17.1124 13.9557 16.8416 13.4229C16.6329 13.0186 16.0875 12.1366 15.6922 11.567C15.1688 10.8173 13.8657 9.21502 13.6058 8.99813C13.1373 8.61597 12.5371 8.54978 11.8745 8.80708C11.1755 9.07903 9.86503 10.1374 9.30499 10.8761C8.79987 11.5449 8.60594 12.019 8.57662 12.6438C8.55102 13.1582 8.59493 13.3714 8.86579 14.0292C10.9851 19.1889 14.1476 23.3086 18.4924 26.5794C20.7617 28.2882 23.1153 29.5892 25.5567 30.4786C26.9806 30.9967 27.5992 31.0224 28.3275 30.5962C28.635 30.4124 29.3964 29.6296 29.8209 29.06C30.5237 28.1118 30.7836 27.6745 30.8568 27.3254C30.9081 27.0865 30.8678 26.6713 30.7726 26.4066Z" fill="#BB8C5F"/>
<path d="M30.5447 18.2559C30.4978 16.9828 30.284 15.9385 29.8381 14.7742C29.3979 13.6289 28.9524 12.8815 28.1111 11.8707C27.3156 10.9229 26.6978 10.3818 25.7179 9.77941C24.3508 8.94012 22.6871 8.38471 20.8226 8.15113C20.1867 8.06949 20.0429 8.07533 19.8478 8.20581C19.4698 8.453 19.4748 9.06955 19.854 9.31304C19.9796 9.3905 20.091 9.41871 20.5996 9.48545C21.3803 9.59083 21.8824 9.69014 22.4781 9.85309C24.8142 10.4933 26.6106 11.8018 27.8116 13.7443C28.8167 15.3634 29.2339 16.9826 29.1746 19.0506C29.154 19.7497 29.169 19.8728 29.2756 20.0407C29.4798 20.3538 30.0181 20.4158 30.2943 20.156C30.4662 19.9976 30.4986 19.8788 30.5324 19.2804C30.5486 18.9682 30.5521 18.5074 30.5447 18.2559Z" fill="#BB8C5F"/>
<path d="M0 0V-1.42857H-1.42857V0H0ZM40 0H41.4286V-1.42857H40V0ZM40 40V41.4286H41.4286V40H40ZM0 40H-1.42857V41.4286H0V40ZM0 1.42857H40V-1.42857H0V1.42857ZM38.5714 0V40H41.4286V0H38.5714ZM40 38.5714H0V41.4286H40V38.5714ZM1.42857 40V0H-1.42857V40H1.42857Z" fill="#BB8C5F"/>
</svg>
