<svg width="40" height="40" viewBox="0 0 40 40" fill="none" xmlns="http://www.w3.org/2000/svg">
<path d="M0 0H40V40H0V0Z" fill="#050402"/>
<path fill-rule="evenodd" clip-rule="evenodd" d="M32.4554 19.0441C32.4528 25.5997 27.1199 30.9339 20.5629 30.9366H20.558C18.5676 30.9359 16.6118 30.4365 14.8748 29.489L8.57031 31.1428L10.2575 24.9802C9.21676 23.1766 8.66913 21.1307 8.67002 19.0347C8.67263 12.4776 14.0077 7.14282 20.5628 7.14282C23.7442 7.1442 26.7302 8.38271 28.9755 10.6307C31.2208 12.8785 32.4567 15.8664 32.4554 19.0441ZM11.4257 28.3174L15.1669 27.336L15.5278 27.5502C17.0455 28.4508 18.7851 28.9273 20.5589 28.928H20.5629C26.011 28.928 30.4453 24.4937 30.4474 19.0433C30.4485 16.4021 29.4213 13.9186 27.555 12.0502C25.6888 10.1818 23.207 9.15235 20.5668 9.15144C15.1144 9.15144 10.6801 13.5853 10.678 19.0353C10.6772 20.903 11.1998 22.722 12.1893 24.2958L12.4243 24.6698L11.4257 28.3174Z" fill="#BB8C5F"/>
<path d="M26.3195 22.6151C26.2453 22.4912 26.0472 22.4168 25.7501 22.268C25.4529 22.1193 23.9919 21.4005 23.7195 21.3012C23.4472 21.2021 23.249 21.1526 23.0509 21.45C22.8529 21.7474 22.2834 22.4168 22.11 22.6151C21.9367 22.8134 21.7633 22.8383 21.4663 22.6895C21.1691 22.5408 20.2116 22.227 19.0766 21.2146C18.1932 20.4266 17.5968 19.4536 17.4235 19.1561C17.2502 18.8586 17.405 18.6978 17.5538 18.5496C17.6875 18.4164 17.851 18.2025 17.9995 18.029C18.1481 17.8555 18.1976 17.7315 18.2967 17.5333C18.3957 17.3349 18.3462 17.1614 18.2719 17.0127C18.1976 16.8639 17.6033 15.4013 17.3557 14.8063C17.1145 14.2268 16.8695 14.3053 16.6871 14.2962C16.514 14.2875 16.3157 14.2856 16.1176 14.2856C15.9195 14.2856 15.5976 14.36 15.3252 14.6575C15.0528 14.955 14.2852 15.6739 14.2852 17.1365C14.2852 18.5992 15.3499 20.0122 15.4985 20.2105C15.6471 20.4089 17.5939 23.4103 20.5748 24.6974C21.2838 25.0036 21.8372 25.1864 22.2688 25.3234C22.9807 25.5496 23.6285 25.5177 24.1405 25.4411C24.7114 25.3558 25.8986 24.7223 26.1463 24.0282C26.3938 23.334 26.3938 22.739 26.3195 22.6151Z" fill="#BB8C5F"/>
<path d="M0 0V-1.42857H-1.42857V0H0ZM40 0H41.4286V-1.42857H40V0ZM40 40V41.4286H41.4286V40H40ZM0 40H-1.42857V41.4286H0V40ZM0 1.42857H40V-1.42857H0V1.42857ZM38.5714 0V40H41.4286V0H38.5714ZM40 38.5714H0V41.4286H40V38.5714ZM1.42857 40V0H-1.42857V40H1.42857Z" fill="#BB8C5F"/>
</svg>
